<svg xmlns="http://www.w3.org/2000/svg" width="1em" height="1em" stroke-linejoin="round" stroke-linecap="round" viewBox="0 0 24 24" stroke-width="2" fill="none" stroke="#123"><defs><clipPath id="a" clipPathUnits="userSpaceOnUse"><path fill="#9e1a1a" stroke="none" stroke-width=".48" d="M-3.585-2.186h30.941v8.492H-3.585z"/></clipPath></defs><path d="M4 4h16c1.1 0 2 .9 2 2v12c0 1.1-.9 2-2 2H4c-1.1 0-2-.9-2-2V6c0-1.1.9-2 2-2z" stroke="#d2d8e0"/><path clip-path="url(#a)" d="M4 4h16c1.1 0 2 .9 2 2v12c0 1.1-.9 2-2 2H4c-1.1 0-2-.9-2-2V6c0-1.1.9-2 2-2z" stroke="#fe9c55"/><path stroke="#fe9c55" d="M22 6l-10 7L2 6"/></svg>
