<?xml version="1.0" encoding="UTF-8" standalone="no"?>
<svg
   xmlns:dc="http://purl.org/dc/elements/1.1/"
   xmlns:cc="http://creativecommons.org/ns#"
   xmlns:rdf="http://www.w3.org/1999/02/22-rdf-syntax-ns#"
   xmlns:svg="http://www.w3.org/2000/svg"
   xmlns="http://www.w3.org/2000/svg"
   xmlns:sodipodi="http://sodipodi.sourceforge.net/DTD/sodipodi-0.dtd"
   xmlns:inkscape="http://www.inkscape.org/namespaces/inkscape"
   width="1500"
   height="300"
   fill="none"
   version="1.1"
   id="svg3781"
   sodipodi:docname="header2.svg"
   inkscape:version="0.92.4 (5da689c313, 2019-01-14)">
  <metadata
     id="metadata3787">
    <rdf:RDF>
      <cc:Work
         rdf:about="">
        <dc:format>image/svg+xml</dc:format>
        <dc:type
           rdf:resource="http://purl.org/dc/dcmitype/StillImage" />
        <dc:title></dc:title>
      </cc:Work>
    </rdf:RDF>
  </metadata>
  <defs
     id="defs3785" />
  <sodipodi:namedview
     pagecolor="#ffffff"
     bordercolor="#666666"
     borderopacity="1"
     objecttolerance="10"
     gridtolerance="10"
     guidetolerance="10"
     inkscape:pageopacity="0"
     inkscape:pageshadow="2"
     inkscape:window-width="793"
     inkscape:window-height="871"
     id="namedview3783"
     showgrid="false"
     inkscape:zoom="0.39933333"
     inkscape:cx="386.89482"
     inkscape:cy="69.866444"
     inkscape:window-x="884"
     inkscape:window-y="90"
     inkscape:window-maximized="0"
     inkscape:current-layer="svg3781" />
  <path
     d="M -161.263,74.777 -171.388,85 H -72 l 4.521,245.632 c 731.677,-102.533 1473.813,339.454 1751.77,-9.725 265.823,-315.718 191.354,-151.348 -70.851,-85.069 -66.77,16.425 -140.85,23.074 -214.08,24.601 -73.2,1.526 -145.35,-2.071 -208.24,-6.06 C 871.98175,260.12879 645.95446,34.147701 373.883,10.012 303.978,4.094 225.905,4.753 151.464,9.713 77.022,14.673 6.054,23.945 -49.656,35.305 c -27.845,5.678 -51.995,11.902 -70.91,18.413 -18.608,6.405 -33.105,13.394 -40.697,21.06 z"
     id="path3779"
     inkscape:connector-curvature="0"
     style="fill:#ffb277;stroke:#ffb277;stroke-width:12"
     sodipodi:nodetypes="cccccccccscccc" />
</svg>
