<svg xmlns="http://www.w3.org/2000/svg" width="1500" height="300" fill="none"><path d="M-161.263 74.777L-171.388 85H-72l4.521 245.632c731.677-102.533 1473.813 339.454 1751.77-9.725 265.823-315.718 191.354-151.348-70.851-85.069-66.77 16.425-140.85 23.074-214.08 24.601-73.2 1.526-145.35-2.071-208.24-6.06-15.15-.96-29.78-1.946-43.76-2.888-43.93-2.959-81.53-5.491-108.86-5.491-68.235 0-138.936-22.219-218.734-57.975-55.499-24.869-114.991-56.086-180.857-90.647-28.927-15.179-59.083-31.002-90.669-47.216-42.367-21.747-104.616-34.245-174.357-40.15-69.905-5.918-147.978-5.259-222.419-.299-74.442 4.96-145.41 14.232-201.12 25.592-27.845 5.678-51.995 11.902-70.91 18.413-18.608 6.405-33.105 13.394-40.697 21.06z" fill="#ffb277" stroke="#ffb277" stroke-width="12"/></svg>
