<svg version="1.1" xmlns="http://www.w3.org/2000/svg" xmlns:xlink="http://www.w3.org/1999/xlink" x="0px" y="0px" viewBox="0 0 1024 1024" style="enable-background:new 0 0 1024 1024;" xml:space="preserve">
<style type="text/css">
	.st0{fill:none;}
	.st1{fill:#231F20;}
	.st2{fill:#76BC21;}
	.st3{display:none;}
	.st4{display:inline;fill:#525252;}
</style>
<g id="Layer_1">
	<path class="st0" d="M1023.97,1028.08H-4.55c-8.45,0-15.3-6.85-15.3-15.3V-4.76c0-8.45,6.85-15.3,15.3-15.3h1028.52   c8.45,0,15.3,6.85,15.3,15.3v1017.55C1039.26,1021.23,1032.42,1028.08,1023.97,1028.08z"/>
	<circle class="st0" cx="512" cy="524.84" r="86.23"/>
	<g>
		<path class="st1" d="M856.15,410.9l-45.02,50.92c16.88,15.75,27.46,38.17,27.46,63.02c0,47.55-38.68,86.23-86.23,86.23    c-47.55,0-86.23-38.68-86.23-86.23c0-36.53-12.71-70.08-33.95-96.49c-28.25-35.14-71.58-57.64-120.18-57.64    c-1.7,0-3.4,0.04-5.09,0.09c24.32-36.22,49.76-73.49,52.51-77.83h-76.26c-4.12,6.48-58.2,86.78-83.92,126.81    c-2.57,2.76-5.04,5.62-7.41,8.57c21.23,26.41,33.94,59.96,33.94,96.49c0-47.55,38.68-86.23,86.23-86.23s86.23,38.68,86.23,86.23    c0,36.53,12.71,70.08,33.95,96.49c28.25,35.14,71.58,57.64,120.18,57.64c85.12,0,154.13-69.01,154.13-154.13    C906.49,479.7,887.08,439.09,856.15,410.9z"/>
		<path class="st1" d="M271.64,611.07c-47.37,0-85.93-38.39-86.22-85.69h-67.9c0.29,84.87,69.18,153.59,154.12,153.59    c48.6,0,91.93-22.5,120.18-57.64c-21.23-26.41-33.95-59.96-33.95-96.49C357.87,572.39,319.19,611.07,271.64,611.07z"/>
	</g>
	<g>
		<path class="st2" d="M752.36,370.71c-48.6,0-91.93,22.5-120.18,57.64c21.23,26.41,33.95,59.96,33.95,96.49    c0-47.55,38.68-86.23,86.23-86.23c17.09,0,33.03,5.02,46.44,13.63l45.31-51.25C818.48,381.97,786.74,370.71,752.36,370.71z"/>
		<path class="st2" d="M512,611.07c-47.55,0-86.23-38.68-86.23-86.23c0-36.53-12.71-70.08-33.94-96.49    c-16.06-19.98-37.01-35.88-61.02-45.87c26.75-39.98,57.71-85.35,60.69-90.04l-0.12,0.02l0.18-0.16H194.61    c-13.16,21.27-27.13,43.85-41.49,67.09c0.4,0.17,0.83,0.27,1.29,0.27H271.1c-2.45,3.66-4.97,7.44-7.54,11.27    c-17.07,25.52-35.84,53.6-44.49,67.67h42.13h10.44c47.55,0,86.23,38.68,86.23,86.23c0,36.53,12.71,70.08,33.95,96.49    c28.25,35.14,71.58,57.64,120.18,57.64s91.93-22.5,120.18-57.64c-21.23-26.41-33.95-59.96-33.95-96.49    C598.23,572.39,559.55,611.07,512,611.07z"/>
	</g>
</g>
<g id="cover" class="st3">
	<path class="st4" d="M-233-53v1120h1538V-53H-233z M1025,843.35c0,98.81-80.84,179.65-179.65,179.65h-664.7   C81.84,1023,1,942.16,1,843.35v-664.7C1,79.84,81.84-1,180.65-1h664.7C944.16-1,1025,79.84,1025,178.65V843.35z"/>
</g>
</svg>
