<svg xmlns="http://www.w3.org/2000/svg" width="492" height="145" viewBox="0 0 492 145"><g fill="currentColor"><path d="M99.162 63.144H58.806a1.886 1.886 0 00-1.885 1.887v19.73c0 1.042.844 1.89 1.885 1.89H74.55v24.513s-3.535 1.206-13.308 1.206c-11.53 0-27.636-4.214-27.636-39.63 0-35.428 16.772-40.088 32.517-40.088 13.631 0 19.502 2.4 23.24 3.556 1.174.36 2.26-.809 2.26-1.852l4.5-19.062c0-.49-.165-1.075-.72-1.474-1.517-1.082-10.774-6.262-34.16-6.262-26.94 0-54.577 11.461-54.577 66.562 0 55.102 31.64 63.313 58.303 63.313 22.076 0 35.468-9.434 35.468-9.434.552-.305.612-1.077.612-1.43V65.032a1.886 1.886 0 00-1.886-1.887M307.141 14.16a1.88 1.88 0 00-1.875-1.897h-22.722a1.889 1.889 0 00-1.882 1.897l.007 43.912h-35.42V14.16c0-1.05-.834-1.897-1.874-1.897h-22.722a1.888 1.888 0 00-1.877 1.897v118.903c0 1.05.844 1.901 1.877 1.901h22.722c1.04 0 1.874-.852 1.874-1.901v-50.86h35.42l-.062 50.86c0 1.05.842 1.901 1.882 1.901h22.776c1.042 0 1.874-.852 1.876-1.901V14.16M142.041 29.762c0-8.182-6.559-14.794-14.652-14.794-8.085 0-14.65 6.612-14.65 14.794 0 8.174 6.565 14.805 14.65 14.805 8.093 0 14.652-6.63 14.652-14.805M140.417 107.98V53.095a1.89 1.89 0 00-1.88-1.895h-22.652c-1.039 0-1.968 1.072-1.968 2.114v78.636c0 2.31 1.44 2.998 3.303 2.998h20.408c2.24 0 2.79-1.1 2.79-3.036V107.98M393.497 51.38H370.95c-1.033 0-1.876.852-1.876 1.902v58.3s-5.73 4.192-13.86 4.192c-8.13 0-10.287-3.69-10.287-11.65V53.282c0-1.05-.84-1.903-1.876-1.903h-22.885c-1.032 0-1.879.853-1.879 1.903v54.69c0 23.649 13.18 29.434 31.308 29.434 14.875 0 26.867-8.219 26.867-8.219s.57 4.332.83 4.844c.257.512.93 1.03 1.658 1.03l14.559-.065c1.032 0 1.878-.853 1.878-1.898l-.008-79.816c0-1.05-.84-1.903-1.88-1.903M446.233 115.702c-7.821-.238-13.127-3.788-13.127-3.788V74.26s5.234-3.208 11.655-3.78c8.12-.729 15.944 1.724 15.944 21.095 0 20.425-3.53 24.456-14.472 24.127zm8.893-66.994c-12.806 0-21.517 5.714-21.517 5.714V14.16c0-1.05-.84-1.897-1.875-1.897h-22.788a1.886 1.886 0 00-1.877 1.897v118.903c0 1.05.841 1.901 1.88 1.901h15.81c.713 0 1.251-.366 1.65-1.007.393-.64.96-5.485.96-5.485s9.317 8.831 26.956 8.831c20.71 0 32.585-10.504 32.585-47.155 0-36.65-18.968-41.44-31.784-41.44M205.724 51.19h-17.046l-.025-22.518c0-.853-.44-1.278-1.425-1.278H164c-.904 0-1.388.397-1.388 1.265v23.27s-11.64 2.81-12.428 3.035a1.89 1.89 0 00-1.36 1.814V71.4c0 1.052.84 1.9 1.879 1.9h11.91v35.18c0 26.128 18.327 28.695 30.694 28.695 5.652 0 12.412-1.816 13.528-2.227.674-.249 1.066-.948 1.066-1.706l.02-16.086c0-1.048-.886-1.898-1.884-1.898-.994 0-3.534.405-6.15.405-8.374 0-11.21-3.893-11.21-8.932v-33.43h17.046c1.038 0 1.88-.849 1.88-1.9V53.083c0-1.049-.842-1.894-1.88-1.894"></path></g></svg>
