<svg id="logo_svg__Layer_1" xmlns="http://www.w3.org/2000/svg" x="0" y="0" viewBox="0 0 2160 987.35" xml:space="preserve"><style>.logo_svg__st0{fill:#303030}.logo_svg__st1{fill-rule:evenodd;clip-rule:evenodd;fill:#fe5f55}</style><path class="logo_svg__st0" d="M1304.75 385.32h165.51v602.03h-165.51zM1846.17 667.32l139.3-282H2160l-315.02 602.03-312.53-602.03h173.86zM1302.91 159.32c0-22.85 8.41-42.92 24.86-59.45 16.46-16.54 36.58-24.99 59.62-24.99 23.34 0 43.64 8.44 59.99 24.87 16.55 16.25 24.97 36.54 24.97 60.06 0 23.47-8.39 43.87-24.75 60.3-16.16 16.64-36.35 25.11-59.74 25.11-23.34 0-43.64-8.43-60.11-24.99-16.47-16.57-24.84-37.14-24.84-60.91zM1025.58 0h168.96v987.35h-168.96z"></path><g><path class="logo_svg__st1" d="M509.46 608.64L338.14 744.13v243.22h342.64V744.13z"></path><path class="logo_svg__st1" d="M337.92 987.35l.22-243.46L0 987.35V0h338.14v987.35z"></path></g></svg>
