<svg viewBox="0 0 143.2 17.8" width="110px" height="31px"><path fill="currentColor" d="M2.2 2.7C2.6.7 3.8.3 4.8.3c1.9 0 2.4 1.1 3.4 4.2l1.9 5.9 1.9-6C13 1.3 13.4.2 15.4.2c1 0 2.2.4 2.6 2.4l1.5 8.8c.3 1.8.6 3.7.6 4.3a1.79 1.79 0 01-1.8 1.8c-1.8 0-2.1-1.2-2.3-2.6l-1.2-7.6-2.6 8.4c-.4 1.2-1 1.8-2.1 1.8A2 2 0 018 15.7L5.3 7.5 4.1 15c-.2 1.3-.5 2.6-2.3 2.6A1.79 1.79 0 010 15.8c0-.6.3-2.5.6-4.3zM25.4 3.5c.7-1.9 1.3-3.5 3.2-3.5s2.6 1.6 3.3 3.5l3.7 10.1a6.55 6.55 0 01.6 2.4 1.67 1.67 0 01-1.9 1.6c-1.3 0-1.7-.8-2-1.9l-.5-1.5h-6.4l-.4 1.5c-.4 1.1-.8 1.9-2 1.9s-2-.6-2-1.6a6.55 6.55 0 01.6-2.4zm3.3.8l-2.1 6.3h4.1zM45.8 0c2.4 0 5.2.7 5.2 2.7a1.77 1.77 0 01-1.7 1.8c-.9 0-1.9-.8-3.4-.8-3.1 0-4.4 2.5-4.4 5.2s1.4 5 4.1 5c2.4 0 2.8-.8 3.8-.8a1.65 1.65 0 011.7 1.8c0 2.1-3.2 2.9-5.4 2.9-5.4 0-8.4-4-8.4-8.9 0-5.2 3.3-8.9 8.5-8.9zM56.4 15.6a1.91 1.91 0 11-3.8 0V2.3a1.91 1.91 0 113.8 0v4.6h7.2V2.3a1.91 1.91 0 113.8 0v13.2a1.91 1.91 0 11-3.8 0v-5h-7.2v5.1zM86.4 8.9c0 5.4-3.3 8.9-8.4 8.9s-8.4-3.5-8.4-8.9S73 0 78 0s8.4 3.5 8.4 8.9zm-12.6 0c0 2.7 1.2 5.3 4.2 5.3s4.2-2.6 4.2-5.3S81 3.6 78 3.6s-4.2 2.6-4.2 5.3zM88.5 2.3A1.84 1.84 0 0190.4.4H95c3 0 4.8 1.8 4.8 4.5a3.85 3.85 0 01-2 3.3 4.11 4.11 0 013.4 4.2c0 2.7-1.8 5.2-6 5.2h-4.8a1.84 1.84 0 01-1.9-1.9V2.3zm3.9 4.8h1.8A1.58 1.58 0 0096 5.5c0-1.1-.6-1.6-1.8-1.6h-1.8v3.2zm0 6.9h2.4c1.3 0 2.4-.5 2.4-1.8s-1.2-1.8-2.4-1.8h-2.4V14zM103.3 2.3a1.84 1.84 0 011.9-1.9h6a1.71 1.71 0 011.9 1.8 1.71 1.71 0 01-1.9 1.8h-4v3.1h3.7a1.71 1.71 0 011.9 1.8 1.71 1.71 0 01-1.9 1.8h-3.7v3.2h4.2a1.71 1.71 0 011.9 1.8 1.71 1.71 0 01-1.9 1.8h-6.1a1.84 1.84 0 01-1.9-1.9V2.3h-.1zM118.4 3.5c.7-1.9 1.3-3.5 3.2-3.5s2.6 1.6 3.3 3.5l3.7 10.1a6.55 6.55 0 01.6 2.4 1.67 1.67 0 01-1.9 1.6c-1.3 0-1.7-.8-2-1.9l-.5-1.5h-6.4l-.5 1.5c-.4 1.1-.8 1.9-2 1.9A1.67 1.67 0 01114 16a6.55 6.55 0 01.6-2.4zm3.3.8l-2.1 6.3h4.1zM130.7 2.3a1.84 1.84 0 011.9-1.9h4.7c3.5 0 5.7 2.1 5.7 5.3a4.67 4.67 0 01-4 4.8l3.4 3.6a2.46 2.46 0 01.8 1.7 2.05 2.05 0 01-3.8.8l-4.8-6v4.9a1.91 1.91 0 11-3.8 0V2.3h-.1zm3.9 5.5h2.6a1.81 1.81 0 002-1.9 1.79 1.79 0 00-2-1.8h-2.6v3.7z"></path></svg>
